<?xml version="1.0" encoding="UTF-8" standalone="no"?>
<svg
   xmlns:dc="http://purl.org/dc/elements/1.1/"
   xmlns:cc="http://creativecommons.org/ns#"
   xmlns:rdf="http://www.w3.org/1999/02/22-rdf-syntax-ns#"
   xmlns:svg="http://www.w3.org/2000/svg"
   xmlns="http://www.w3.org/2000/svg"
   xmlns:sodipodi="http://sodipodi.sourceforge.net/DTD/sodipodi-0.dtd"
   xmlns:inkscape="http://www.inkscape.org/namespaces/inkscape"
   inkscape:version="1.0 (4035a4fb49, 2020-05-01)"
   sodipodi:docname="search.svg"
   id="svg6"
   version="1.1"
   height="36px"
   width="36px"
   fill="black"
   viewBox="0 0 24 24">
  <metadata
     id="metadata12">
    <rdf:RDF>
      <cc:Work
         rdf:about="">
        <dc:format>image/svg+xml</dc:format>
        <dc:type
           rdf:resource="http://purl.org/dc/dcmitype/StillImage" />
      </cc:Work>
    </rdf:RDF>
  </metadata>
  <defs
     id="defs10" />
  <sodipodi:namedview
     inkscape:current-layer="svg6"
     inkscape:window-maximized="1"
     inkscape:window-y="-9"
     inkscape:window-x="-9"
     inkscape:cy="17.913253"
     inkscape:cx="18"
     inkscape:zoom="23.055556"
     showgrid="false"
     id="namedview8"
     inkscape:window-height="1001"
     inkscape:window-width="1920"
     inkscape:pageshadow="2"
     inkscape:pageopacity="0"
     guidetolerance="10"
     gridtolerance="10"
     objecttolerance="10"
     borderopacity="1"
     bordercolor="#666666"
     pagecolor="#ffffff" />
  <path
     id="path2"
     fill="none"
     d="M0 0h24v24H0z" />
  <path
     id="path4"
     d="M15.5 14h-.79l-.28-.27C15.41 12.59 16 11.11 16 9.5 16 5.91 13.09 3 9.5 3S3 5.91 3 9.5 5.91 16 9.5 16c1.61 0 3.09-.59 4.23-1.57l.27.28v.79l5 4.99L20.49 19l-4.99-5zm-6 0C7.01 14 5 11.99 5 9.5S7.01 5 9.5 5 14 7.01 14 9.5 11.99 14 9.5 14z" />
  <path
     transform="scale(0.66666667)"
     style="stroke-width:0.0433735"
     id="path14"
     d="m 24.755327,26.945689 -3.719182,-3.719371 v -0.587079 -0.587078 l -0.207514,-0.204394 c -0.114133,-0.112417 -0.222524,-0.204394 -0.240869,-0.204394 -0.01834,0 -0.164059,0.104466 -0.323811,0.232146 -1.351706,1.080341 -3.027465,1.785526 -4.822987,2.029587 -0.607259,0.08254 -1.951295,0.07016 -2.559036,-0.02358 C 10.676708,23.541399 8.8076121,22.579174 7.2618885,20.988288 5.8239919,19.50838 4.9286119,17.682519 4.615993,15.592771 4.5104681,14.887375 4.5094424,13.609985 4.6138509,12.925301 4.874621,11.21524 5.4711458,9.771231 6.4772945,8.4144578 6.8699051,7.8850297 7.8850297,6.8699051 8.4144578,6.4772945 10.159254,5.1833979 12.102143,4.5375146 14.248193,4.5379598 c 1.56886,3.253e-4 2.882611,0.304572 4.293976,0.9944255 0.956733,0.4676366 1.734977,1.0242691 2.530651,1.8100261 1.531741,1.5126513 2.477673,3.3787246 2.808036,5.5395166 0.09332,0.610385 0.106179,1.958953 0.0244,2.559036 -0.244948,1.797326 -0.94946,3.471365 -2.029734,4.822987 -0.12768,0.159752 -0.232146,0.306871 -0.232146,0.326932 0,0.02006 0.09338,0.128452 0.207514,0.240868 l 0.207514,0.204394 h 0.586127 0.586127 l 3.706359,3.710772 c 2.038498,2.040925 3.715232,3.720219 3.726077,3.731765 0.01992,0.02122 -2.125528,2.186378 -2.166475,2.186378 -0.01216,0 -1.695739,-1.673717 -3.741289,-3.719371 z m -9.964966,-5.953553 c 0.962264,-0.08347 1.657757,-0.276986 2.493976,-0.693936 1.827166,-0.91105 3.145896,-2.605202 3.581509,-4.601109 0.196857,-0.901966 0.196042,-1.991811 -0.0022,-2.905511 C 20.321155,10.290774 18.388313,8.3030241 15.896386,7.683184 15.336265,7.5438602 14.900292,7.4949453 14.228559,7.496059 12.324493,7.4992157 10.697254,8.1939501 9.3656702,9.5722235 8.2565626,10.720219 7.6266667,12.133473 7.5056618,13.745396 c -0.2763469,3.681257 2.4521633,6.91903 6.1024522,7.241444 0.601542,0.05313 0.629343,0.05326 1.182247,0.0053 z" />
  <path
     transform="scale(0.66666667)"
     id="path18"
     d="m 24.755327,26.945689 -3.719182,-3.719371 v -0.587079 -0.587078 l -0.207514,-0.204394 c -0.114133,-0.112417 -0.222524,-0.204394 -0.240869,-0.204394 -0.01834,0 -0.164059,0.104748 -0.323811,0.232773 -2.056157,1.647805 -4.798034,2.385058 -7.425397,1.996589 C 8.9608047,23.299389 5.7508266,20.388518 4.8168451,16.598493 4.605627,15.741386 4.5377686,15.169511 4.5379598,14.248193 4.5384085,12.085182 5.1710747,10.183036 6.4782985,8.4144578 6.8684707,7.8865834 7.8834545,6.8710732 8.4144578,6.4772945 9.7713295,5.4710727 11.224509,4.8705664 12.925301,4.613252 c 0.684495,-0.1035578 1.963925,-0.1023953 2.66747,0.00242 2.796523,0.4166458 5.20618,1.9395121 6.765814,4.2758905 0.773395,1.1585695 1.301309,2.5412645 1.524113,3.9919075 0.104955,0.683339 0.104955,2.046098 0,2.729438 -0.264972,1.725193 -0.968335,3.355534 -2.006552,4.651039 -0.128025,0.159752 -0.232773,0.306871 -0.232773,0.326932 0,0.02006 0.09338,0.128452 0.207514,0.240868 l 0.207514,0.204394 h 0.586127 0.586127 l 3.706359,3.710772 c 2.038498,2.040925 3.715232,3.720219 3.726077,3.731765 0.01992,0.02122 -2.125528,2.186378 -2.166475,2.186378 -0.01216,0 -1.695739,-1.673717 -3.741289,-3.719371 z m -9.292676,-6.041268 c 2.646534,-0.445293 4.848387,-2.572935 5.40093,-5.218898 0.506969,-2.42772 -0.272834,-4.82541 -2.112189,-6.4944311 C 18.009979,8.5183376 17.139796,8.0407614 16.113769,7.7435057 14.953195,7.4072697 13.537911,7.4096369 12.361795,7.7497814 9.8473671,8.4769789 7.990843,10.580508 7.5643251,13.185542 c -0.08774,0.535888 -0.088043,1.586248 -6.138e-4,2.125817 0.2414393,1.490036 0.8992309,2.744284 1.9969393,3.807678 1.5761224,1.526853 3.6714174,2.16069 5.9020004,1.785384 z"
     style="fill:#ffffff;stroke-width:0.0433735" />
</svg>
